<?xml version="1.0" standalone="no"?>
<!DOCTYPE svg PUBLIC "-//W3C//DTD SVG 20010904//EN"
 "http://www.w3.org/TR/2001/REC-SVG-20010904/DTD/svg10.dtd">
<svg version="1.0" xmlns="http://www.w3.org/2000/svg"
 width="348.000000pt" height="256.000000pt" viewBox="0 0 348.000000 256.000000"
 preserveAspectRatio="xMidYMid meet">

<g transform="translate(0.000000,256.000000) scale(0.100000,-0.100000)"
fill="#000000" stroke="none">
<path d="M1309 2548 c0 -2 -3 -16 -5 -33 -3 -16 -12 -70 -20 -120 -9 -49 -18
-110 -21 -135 -3 -25 -11 -51 -17 -59 -8 -11 -8 -13 1 -7 9 5 11 -1 7 -22 -5
-27 -3 -31 22 -36 77 -15 122 -17 128 -7 5 7 -7 11 -33 11 -23 0 -41 1 -41 3
0 1 -3 83 -6 182 -3 99 -7 188 -9 198 -4 19 10 23 18 5 3 -7 47 -67 98 -133
52 -67 100 -133 108 -148 19 -36 34 -34 26 3 -6 28 -5 30 27 31 18 1 38 1 43
-1 6 -1 6 3 -1 10 -11 11 3 130 16 130 3 0 17 -22 30 -50 27 -59 23 -74 -41
-150 -35 -42 -40 -53 -34 -79 10 -49 65 -85 168 -114 51 -14 115 -29 142 -33
l50 -7 -55 -19 c-54 -18 -90 -47 -90 -74 0 -11 4 -11 18 2 23 19 227 114 247
114 11 0 10 -12 -6 -67 -10 -37 -17 -69 -14 -71 3 -3 0 -10 -5 -17 -5 -6 -10
-26 -12 -43 -1 -18 -5 -32 -8 -32 -3 0 -5 -15 -5 -32 0 -18 -4 -39 -9 -45 -12
-18 -87 -16 -116 3 -14 10 1 -10 33 -42 46 -48 57 -66 57 -92 0 -24 4 -31 13
-26 8 5 8 2 -2 -9 -7 -9 -10 -17 -6 -17 4 0 3 -6 -2 -12 -6 -7 -9 -22 -7 -33
18 -100 20 -92 -25 -100 -23 -4 -71 -2 -109 4 -111 17 -151 19 -155 7 -8 -25
15 -102 37 -125 13 -13 48 -32 77 -43 30 -10 42 -17 26 -15 -15 2 -30 0 -33
-5 -3 -5 -12 -4 -20 3 -9 7 -14 8 -13 3 1 -5 1 -18 0 -29 -1 -17 -3 -18 -12
-5 -9 13 -10 12 -5 -2 3 -10 1 -20 -4 -23 -6 -4 -10 -1 -10 6 0 7 -3 9 -6 6
-4 -4 -1 -14 7 -23 13 -16 12 -16 -7 -6 -18 9 -25 8 -35 -5 -8 -9 -14 -24 -14
-33 0 -22 -23 -50 -42 -50 -8 0 -12 -4 -9 -8 3 -5 -1 -9 -9 -9 -8 0 -12 4 -9
8 2 4 1 10 -4 13 -5 3 -7 22 -6 42 4 40 13 59 15 28 3 -52 5 -59 19 -60 10 -1
10 1 2 3 -7 3 -12 12 -11 21 3 36 -2 50 -37 98 -20 27 -33 40 -29 29 19 -52
21 -50 -108 -119 -69 -36 -128 -66 -132 -66 -4 0 -4 7 -1 16 3 8 10 43 16 77
9 58 13 76 24 135 3 12 8 27 11 33 13 21 -71 -22 -91 -47 -31 -38 -46 -94 -34
-132 24 -85 65 -119 178 -148 58 -15 95 -36 48 -27 -25 5 -32 -4 -27 -31 1 -5
-4 -4 -12 3 -24 19 -57 22 -50 4 5 -12 7 -12 15 -1 8 11 9 10 6 -1 -2 -8 -12
-15 -21 -17 -9 -1 -15 2 -12 6 3 5 0 12 -6 16 -7 4 -9 3 -5 -4 3 -6 2 -13 -4
-17 -6 -4 -8 -10 -6 -14 3 -4 -1 -8 -9 -8 -11 0 -12 5 -4 21 9 18 8 19 -3 5
-7 -9 -20 -15 -29 -14 -11 2 -15 -3 -12 -14 2 -10 -4 -24 -13 -32 -11 -9 -15
-9 -10 -2 5 9 -1 13 -18 13 -14 0 -26 -4 -26 -10 0 -5 6 -8 13 -6 6 1 9 1 5
-1 -4 -3 -10 -4 -14 -3 -4 1 -11 -4 -15 -12 -7 -10 -9 -10 -9 0 0 6 -5 12 -11
12 -5 0 -8 -4 -4 -9 9 -16 -36 -3 -59 16 -11 10 -18 14 -13 9 4 -5 0 -17 -8
-26 -13 -14 -11 -16 13 -17 22 -1 23 0 8 6 -13 5 -16 10 -9 14 12 7 26 -8 29
-30 1 -7 -3 -16 -8 -20 -7 -3 -8 -1 -4 5 5 8 -1 12 -14 12 -19 0 -20 -1 -6
-16 9 -8 16 -20 16 -25 0 -6 5 -7 12 -3 6 4 8 3 5 -3 -4 -6 5 -22 19 -36 16
-17 21 -28 14 -32 -6 -4 -12 -5 -14 -4 -1 2 -12 20 -24 39 -11 19 -38 51 -59
70 l-38 35 33 -35 c17 -20 32 -40 32 -46 0 -5 -24 -28 -52 -49 -29 -22 -96
-75 -148 -117 -52 -42 -96 -75 -98 -73 -4 4 104 206 159 297 l29 48 -31 16
c-17 9 -39 14 -49 11 -19 -5 -42 25 -46 59 -2 17 -58 120 -73 134 -4 3 -7 12
-9 22 -2 14 8 13 90 -9 51 -14 110 -31 131 -38 21 -7 40 -9 43 -4 3 5 0 9 -6
9 -7 0 2 16 19 35 17 20 31 44 31 54 0 20 11 20 -225 6 -60 -3 -120 -8 -132
-11 -34 -7 -28 8 16 41 21 17 69 58 107 92 38 34 83 73 99 87 l30 26 -32 0
c-27 0 -44 -13 -117 -92 -47 -50 -88 -90 -90 -87 -6 6 -23 137 -25 191 l-2 47
28 -14 c24 -13 29 -12 44 1 19 17 42 74 31 75 -20 2 -48 12 -167 59 -71 28
-143 56 -160 62 -52 19 -48 25 27 38 40 7 93 16 118 21 25 4 63 11 85 14 22 4
57 10 77 15 24 5 41 4 48 -4 10 -8 10 -5 0 13 -14 28 -24 27 -239 -24 -79 -19
-152 -35 -162 -35 -30 0 -22 -15 24 -45 23 -15 86 -60 139 -99 91 -66 97 -73
98 -106 0 -34 -5 -39 -139 -135 -77 -55 -140 -103 -140 -106 -1 -4 14 -9 32
-13 17 -3 93 -20 167 -37 l135 -32 25 -56 c13 -31 43 -83 65 -116 36 -52 40
-64 33 -90 -5 -16 -13 -43 -18 -60 -5 -16 -25 -83 -45 -149 -20 -65 -34 -120
-32 -122 4 -4 81 30 247 108 l85 40 62 -32 c35 -18 67 -29 74 -24 7 4 10 3 6
-3 -4 -6 6 -16 22 -21 26 -9 32 -20 51 -84 36 -124 46 -152 56 -154 5 -2 33
31 63 72 30 41 57 74 61 74 4 0 18 -25 31 -55 13 -30 29 -55 34 -55 6 0 28 34
49 75 41 77 49 85 63 61 15 -26 216 -266 222 -266 7 0 61 307 61 341 0 15 -11
13 -83 -12 -80 -27 -217 -49 -217 -35 0 18 51 79 93 111 26 20 47 42 47 49 0
8 7 17 16 20 12 5 14 3 8 -7 -5 -7 1 -2 12 11 12 14 26 22 31 19 6 -4 20 5 32
19 12 14 26 22 32 18 6 -3 13 3 16 15 3 12 12 21 19 21 8 0 19 10 24 22 5 14
9 17 10 8 1 -9 6 -4 12 10 6 14 10 29 9 35 -6 25 42 -34 60 -74 l20 -45 26 43
26 43 86 -6 c47 -3 88 -6 90 -6 3 0 -4 -7 -15 -16 -10 -8 -14 -13 -8 -10 7 3
19 -10 29 -32 10 -20 25 -46 34 -56 13 -16 13 -18 1 -12 -8 4 -6 0 4 -8 11 -9
16 -16 10 -16 -5 0 -4 -4 2 -8 13 -8 54 -86 54 -102 0 -6 -26 17 -57 51 -32
34 -57 66 -55 71 1 5 -2 7 -8 3 -5 -3 -10 1 -10 10 0 9 -4 13 -10 10 -5 -3
-10 1 -10 9 0 8 -11 23 -24 34 -24 18 -24 20 -9 43 9 13 -10 -1 -43 -31 -32
-31 -75 -68 -94 -84 -19 -15 -30 -25 -24 -22 6 3 35 -4 65 -15 30 -11 74 -27
99 -36 25 -8 78 -28 119 -45 40 -16 76 -26 79 -24 5 6 -69 206 -95 260 l-15
29 31 -5 c38 -5 38 -1 6 63 -14 27 -23 54 -20 60 4 5 1 8 -6 7 -7 -2 -32 42
-60 104 -44 99 -49 131 -16 112 8 -5 8 -2 -2 9 -12 15 -11 17 5 18 11 0 14 3
6 6 -9 3 -7 9 6 21 10 10 12 13 5 8 -10 -6 -12 -4 -7 8 3 9 11 16 18 16 6 0 4
5 -4 10 -12 8 -12 10 5 11 12 0 15 3 7 6 -10 4 -9 9 5 20 10 8 12 12 6 8 -13
-6 -8 20 8 41 5 6 6 14 2 17 -3 4 -1 7 5 7 6 0 9 7 5 17 -5 12 -3 14 7 8 9 -6
11 -4 5 6 -9 13 -15 49 -9 49 2 0 13 -18 24 -39 20 -41 45 -66 33 -35 -4 11
-2 15 4 11 6 -4 23 5 38 19 l27 25 -4 -38 c-3 -21 -7 -45 -10 -53 -2 -8 -3
-11 0 -7 2 4 11 2 20 -5 13 -11 15 -11 8 2 -4 8 0 6 9 -5 9 -11 20 -20 24 -20
5 0 52 -31 105 -69 53 -37 99 -66 102 -64 2 3 -52 46 -121 97 -121 90 -125 94
-124 129 0 41 -3 38 182 171 83 60 102 81 75 81 -7 0 -81 16 -164 36 l-151 36
-32 65 c-17 36 -49 89 -71 118 l-39 53 60 182 c33 100 59 183 57 185 -2 1 -81
-33 -177 -76 l-173 -78 -67 33 c-36 18 -82 38 -102 45 -37 12 -44 28 -95 214
-3 9 -8 17 -12 16 -4 0 -29 -31 -57 -69 -27 -38 -52 -70 -55 -70 -3 0 -18 25
-33 55 -15 30 -31 55 -36 55 -5 0 -28 -34 -51 -75 -23 -41 -44 -77 -48 -79 -4
-2 -57 56 -117 129 -95 116 -122 144 -126 133z m556 -285 c27 -170 36 -203 57
-203 5 0 6 6 2 13 -5 7 0 6 11 -3 11 -9 16 -10 11 -2 -6 11 4 16 26 13 14 -1
0 30 -24 56 -21 22 -55 103 -44 103 17 0 96 -34 96 -42 0 -5 4 -7 9 -4 5 3 12
-1 15 -10 4 -9 13 -14 22 -10 8 3 13 2 11 -2 -3 -4 28 -34 69 -67 40 -33 71
-61 69 -64 -3 -2 -31 1 -63 8 -51 10 -171 8 -209 -4 -6 -2 -13 0 -15 6 -2 5
-16 4 -35 -3 -38 -14 -162 3 -199 27 -21 13 -21 14 41 142 34 70 72 151 85
180 13 29 26 50 30 48 4 -3 20 -85 35 -182z m569 15 c-6 -19 -55 -129 -117
-260 l-22 -46 -86 78 -87 78 97 53 c129 71 215 118 219 119 2 0 0 -10 -4 -22z
m-69 -438 c-3 -5 -2 -10 3 -10 5 0 24 -22 43 -48 19 -27 38 -49 44 -50 5 0 11
-5 12 -9 2 -5 -16 -7 -39 -4 -40 6 -43 9 -55 50 -7 24 -15 52 -18 62 -4 11 -2
19 5 19 6 0 8 -4 5 -10z m89 -146 c24 -3 112 -20 196 -38 l152 -32 -168 -73
c-93 -40 -179 -79 -191 -87 -37 -23 -57 20 -62 128 -3 93 2 124 19 113 6 -4
30 -9 54 -11z m-657 -526 c-3 -8 -6 -5 -6 6 -1 11 2 17 5 13 3 -3 4 -12 1 -19z
m492 -61 c44 -72 158 -287 152 -287 -3 0 -78 33 -166 74 -88 41 -168 77 -178
80 -15 5 -16 9 -5 35 7 16 27 44 43 63 70 78 120 89 154 35z m-548 6 c13 -17
13 -17 -5 -3 -18 14 -19 13 -13 -2 3 -10 1 -20 -5 -24 -7 -4 -8 -3 -4 4 4 7 2
12 -5 12 -8 0 -8 4 1 15 15 19 15 19 31 -2z m-414 -265 c-3 -8 -6 -5 -6 6 -1
11 2 17 5 13 3 -3 4 -12 1 -19z m395 -114 c15 -8 29 -18 32 -22 3 -5 -27 -89
-66 -187 -54 -134 -73 -174 -79 -159 -19 49 -85 360 -79 368 25 27 139 27 192
0z m599 -11 c13 -16 12 -17 -3 -4 -17 13 -22 21 -14 21 2 0 10 -8 17 -17z
m-1093 -88 c-3 -3 -9 2 -12 12 -6 14 -5 15 5 6 7 -7 10 -15 7 -18z m95 -14
c27 -10 97 -23 135 -25 13 -1 30 -13 42 -31 25 -38 26 -68 3 -62 -10 3 -52 13
-93 23 -41 9 -69 19 -62 22 8 2 -12 19 -44 36 -67 37 -82 59 -35 51 16 -3 41
-9 54 -14z"/>
<path d="M763 2238 c3 -7 17 -44 32 -83 15 -38 31 -79 35 -90 5 -11 16 -37 24
-57 l15 -38 -35 0 c-20 0 -34 -3 -32 -7 2 -5 16 -35 31 -68 29 -59 29 -59 46
-37 12 17 19 20 28 11 9 -9 19 -9 42 1 60 24 59 27 -59 196 -60 86 -109 159
-107 161 4 3 237 -86 305 -117 44 -21 80 -27 49 -9 -9 6 -14 15 -11 21 4 6 3
8 -3 5 -6 -4 -88 22 -183 58 -95 36 -175 65 -177 65 -3 0 -3 -6 0 -12z"/>
<path d="M1167 1974 c-8 -27 -22 -194 -19 -224 2 -14 16 -37 32 -52 26 -24 39
-28 83 -27 31 1 44 4 32 7 -11 4 -21 12 -22 17 -1 6 -24 75 -51 154 -32 93
-52 137 -55 125z"/>
<path d="M830 1789 c-12 -23 -20 -43 -18 -45 3 -2 14 17 26 41 27 56 20 60 -8
4z"/>
<path d="M1981 1564 c0 -11 3 -14 6 -6 3 7 2 16 -1 19 -3 4 -6 -2 -5 -13z"/>
<path d="M1977 1534 c-3 -3 -3 -13 1 -22 5 -15 4 -16 -14 -2 -19 14 -19 14 0
-8 11 -12 21 -22 24 -22 3 0 2 3 -1 7 -4 3 -2 12 4 20 9 10 8 13 -2 13 -11 0
-11 2 1 10 8 5 10 10 4 10 -6 0 -13 -3 -17 -6z"/>
<path d="M1063 1329 c11 -6 30 -34 43 -63 15 -31 24 -43 24 -30 0 25 -55 104
-73 104 -6 0 -4 -5 6 -11z"/>
<path d="M2495 1181 c-3 -6 -12 -29 -20 -52 -18 -51 -12 -83 13 -69 9 5 80 23
157 41 169 38 165 36 165 46 0 4 -24 8 -52 8 -66 0 -233 21 -248 30 -5 3 -11
1 -15 -4z"/>
<path d="M1673 1081 c0 -11 5 -18 9 -15 4 3 5 11 1 19 -7 21 -12 19 -10 -4z"/>
<path d="M975 1001 c-3 -5 -1 -13 5 -16 8 -5 7 -11 -1 -22 -10 -11 -10 -19 -1
-34 7 -11 11 -23 8 -27 -10 -16 54 -11 115 8 80 25 116 45 100 54 -6 4 -11 2
-11 -5 0 -8 -4 -8 -15 1 -13 11 -14 10 -9 -6 7 -18 7 -18 -13 -1 -11 9 -23 17
-28 17 -5 0 -1 -6 10 -13 14 -11 15 -16 5 -22 -9 -5 -11 -4 -6 3 4 7 1 12 -9
12 -10 0 -13 -5 -9 -12 5 -7 3 -8 -5 -4 -7 5 -17 18 -22 30 -8 18 -9 17 -5 -9
4 -27 3 -28 -10 -11 -7 10 -11 23 -7 29 3 6 1 7 -5 3 -7 -4 -12 -2 -12 5 0 7
-3 10 -6 7 -3 -4 -1 -16 6 -27 6 -12 8 -21 6 -21 -3 0 -12 12 -21 28 l-15 27
4 -28 c3 -16 1 -25 -5 -22 -5 4 -7 11 -4 16 4 5 2 9 -4 9 -6 0 -8 8 -5 18 5
14 4 15 -5 2 -10 -13 -15 -8 -12 13 1 10 -7 9 -14 -2z m21 -46 c-1 -8 -5 -17
-8 -21 -5 -4 -4 16 1 34 3 9 9 -1 7 -13z"/>
<path d="M2436 983 c-6 -14 -5 -15 5 -6 7 7 10 15 7 18 -3 3 -9 -2 -12 -12z"/>
<path d="M1435 920 c3 -5 8 -10 11 -10 2 0 4 5 4 10 0 6 -5 10 -11 10 -5 0 -7
-4 -4 -10z"/>
<path d="M1251 867 c-8 -10 -7 -14 2 -14 8 0 14 6 14 14 0 7 -1 13 -2 13 -2 0
-8 -6 -14 -13z"/>
<path d="M1285 850 c3 -5 8 -10 11 -10 2 0 4 5 4 10 0 6 -5 10 -11 10 -5 0 -7
-4 -4 -10z"/>
<path d="M1172 822 c8 -9 14 -9 24 -1 7 6 18 8 24 4 5 -3 10 -2 10 4 0 5 -15
9 -34 8 -26 -2 -32 -5 -24 -15z"/>
</g>
</svg>
